<?xml version="1.0" encoding="iso-8859-1"?>
<!-- Generator: Adobe Illustrator 19.0.0, SVG Export Plug-In . SVG Version: 6.00 Build 0)  -->
<svg xmlns="http://www.w3.org/2000/svg" xmlns:xlink="http://www.w3.org/1999/xlink" version="1.1" id="Layer_1" x="0px" y="0px" viewBox="0 0 425 425" style="enable-background:new 0 0 425 425;" xml:space="preserve" width="512px" height="512px">
<g>
	<path d="M293.333,45V20h-30v25H161.667V20h-30v25H0v360h425V45H293.333z M131.667,75v25h30V75h101.666v20h30V75H395v50H30V75   H131.667z M30,375V155h365v220H30z" fill="#FFFFFF"/>
	<path d="M159.16,228.616c-4.154-4.48-9.311-8.026-15.47-10.64c-6.16-2.612-13.349-3.92-21.561-3.92h-37.1v99.4h37.1   c7.466,0,14.256-1.19,20.37-3.57c6.112-2.38,11.34-5.74,15.68-10.08c4.34-4.34,7.676-9.566,10.011-15.68   c2.331-6.112,3.5-12.95,3.5-20.51c0-6.812-1.051-13.23-3.15-19.25S163.312,233.096,159.16,228.616z M146.56,275.446   c-1.168,3.594-2.848,6.72-5.04,9.38c-2.193,2.66-4.924,4.738-8.189,6.23c-3.269,1.494-7,2.24-11.2,2.24h-14.14v-59.08h14.14   c4.106,0,7.792,0.7,11.061,2.1c3.266,1.4,6.02,3.408,8.26,6.02c2.24,2.614,3.941,5.718,5.109,9.31   c1.166,3.594,1.75,7.584,1.75,11.97C148.31,267.91,147.726,271.854,146.56,275.446z" fill="#FFFFFF"/>
	<path d="M212.289,214.056l-36.26,99.4h23.52l7.561-22.26h30.939l7.701,22.26h23.52l-36.261-99.4H212.289z M210.749,275.375   l11.9-35.14l11.62,35.14H210.749z" fill="#FFFFFF"/>
	<polygon points="307.77,259.696 286.35,214.056 261.43,214.056 296.29,279.295 296.29,313.456 319.109,313.456 319.109,279.576    354.529,214.056 329.47,214.056  " fill="#FFFFFF"/>
</g>
<g>
</g>
<g>
</g>
<g>
</g>
<g>
</g>
<g>
</g>
<g>
</g>
<g>
</g>
<g>
</g>
<g>
</g>
<g>
</g>
<g>
</g>
<g>
</g>
<g>
</g>
<g>
</g>
<g>
</g>
</svg>
