<?xml version="1.0" encoding="utf-8"?>
<!-- Generator: Adobe Illustrator 21.0.2, SVG Export Plug-In . SVG Version: 6.00 Build 0)  -->
<svg version="1.1" id="レイヤー_1" xmlns="http://www.w3.org/2000/svg" xmlns:xlink="http://www.w3.org/1999/xlink" x="0px"
	 y="0px" viewBox="0 0 120 80" style="enable-background:new 0 0 120 80;" xml:space="preserve">
<g>
	
		<image style="overflow:visible;opacity:0.75;enable-background:new    ;" width="427" height="247" xlink:href="D4CAB5AB.png"  transform="matrix(0.281 0 0 0.281 1 5)">
	</image>
	<g>
		<g>
			<path d="M63.3,14.6c0.8-1.9,1.6-3.3,2.2-4.2c0.6-1,1.2-1.5,1.8-1.7c0.6-0.2,0.9-0.3,1.1-0.3c0.2,0,0.3,0,0.3,0.1
				c0,0.1-0.1,0.1-0.3,0.3c-0.2,0.1-0.6,0.6-1.2,1.3c-0.5,0.8-1.2,2-2.1,3.7c-0.8,1.6-1.5,3.4-2.2,5.2c1,0,1.7-0.1,2-0.2
				c0.3-0.1,0.4-0.1,0.5-0.1c0.1,0.1,0,0.2-0.3,0.3c-0.6,0.4-1.4,0.6-2.5,0.7c0,0-0.2,0.4-0.4,1.2c-0.9,2.7-1.3,4.6-1.3,5.6
				c0,0.6,0.1,1,0.3,1.3c0.2,0.3,0.4,0.4,0.7,0.4c0.3,0,0.5-0.1,0.8-0.3c1-0.7,2.1-2.3,3.2-4.7c0.1-0.3,0.3-0.4,0.4-0.4
				s0.1,0.2,0,0.5c-0.6,1.3-1.2,2.4-1.6,3s-0.9,1.2-1.4,1.8c-0.7,0.7-1.4,1-2.1,1c-0.8,0-1.3-0.3-1.7-1c-0.2-0.3-0.2-0.6-0.2-0.8
				s0-0.5,0-0.8s0-0.6,0.1-1.1c0.1-0.4,0.2-1,0.4-1.7c0.2-0.7,0.4-1.2,0.5-1.5c0.1-0.4,0.3-0.8,0.5-1.4c0.2-0.6,0.3-0.9,0.4-1
				c-0.7,0-3.7-0.1-8.8-0.3c-1,3.1-2.7,6-5,8.4c-1.1,1.2-2.4,2.2-3.9,3.1c-2,1.1-4,1.6-6.2,1.6c-0.9,0-1.9-0.1-3.1-0.4
				c-1.1-0.3-2.2-0.8-3.2-1.5c-1-0.8-1.7-1.8-2.1-3s-0.4-2.7,0-4.2c0.2-0.8,0.7-1.5,1.4-2.2c0.7-0.7,1.3-1,1.8-1.1
				c0.2,0,0.3,0,0.3,0.1c0,0.1,0,0.1,0,0.2c-0.1,0.1-0.1,0.1-0.2,0.1c-0.5,0.2-1,0.7-1.6,1.5c-0.7,1-1.1,2.2-1.1,3.5
				c0,2.1,1,3.6,3,4.6c1.2,0.6,2.6,0.9,4.2,0.9c0.7,0,1.4-0.1,2-0.2c5.8-1.3,9.9-5.1,12.3-11.4c-0.4,0-0.9,0.1-1.3,0.3
				c-0.4,0.2-0.7,0.3-0.8,0.3c-0.1,0-0.2-0.1-0.2-0.2c0-0.3,0.2-0.6,0.6-0.8c0.4-0.3,0.8-0.4,1.1-0.4h1c1.1-2.8,2.4-5.5,3.8-8.4
				c-0.4,0.1-1.1,0.1-1.9,0.2c-0.8,0.1-1.5,0.1-2,0.2c-0.5,0.1-1.2,0.1-1.9,0.3c-0.8,0.1-1.4,0.3-1.9,0.4c-0.5,0.2-1.1,0.4-1.7,0.7
				c-0.6,0.3-1.1,0.6-1.5,1c-1,0.9-1.7,2.1-2.1,3.4c-0.2,0.6-0.3,1.1-0.3,1.8s0.2,1.2,0.7,1.8c0.4,0.6,1,0.9,1.8,0.9
				c1.5,0,2.5-0.8,3.1-2.5c0.3-0.8,0.4-1.3,0.4-1.7c0-0.3-0.1-0.6-0.2-0.7c-0.1-0.2-0.1-0.3,0.1-0.3c0.1,0,0.2,0.1,0.3,0.2
				c0.2,0.4,0.3,0.9,0.3,1.5c0,0.5-0.2,1.1-0.5,1.7c-0.6,1.1-1.4,1.8-2.4,2.1c-0.5,0.2-1,0.3-1.5,0.3c-0.5,0-1-0.1-1.5-0.3
				c-0.9-0.4-1.6-1.1-2-2c-0.3-0.6-0.4-1.1-0.4-1.6c0-0.5,0.1-1.1,0.3-1.8c0.2-0.7,0.5-1.3,1-2c0.5-0.7,1.1-1.2,1.8-1.7
				c0.7-0.4,1.5-0.8,2.2-1c0.7-0.3,1.6-0.5,2.6-0.6c1-0.1,1.9-0.3,2.6-0.3c0.7-0.1,1.6-0.1,2.6-0.2c1-0.1,1.8-0.1,2.3-0.2
				c0.2-0.3,0.5-0.7,0.9-1.2c0.4-0.5,0.7-0.8,1-0.8c0.3-0.1,0.5-0.1,0.6-0.1c0.6,0,1,0.3,1,0.8S58.7,9,58,9.4s-1.4,0.5-2,0.5
				c-0.5,0.9-1.1,2.5-2,4.8s-1.3,3.5-1.3,3.6c1.3,0,3,0.1,5,0.2c2.1,0.1,3.3,0.2,3.8,0.2C61.9,17.9,62.5,16.4,63.3,14.6z M57.9,8.1
				c-0.2,0-0.6,0.4-1.3,1.3c1.1-0.2,1.7-0.5,1.7-0.9C58.2,8.3,58.2,8.1,57.9,8.1C58,8.1,57.9,8.1,57.9,8.1z"/>
			<path d="M72.8,23.1c-0.6,1.1-0.9,1.9-1,2.4c-0.1,0.5-0.2,1-0.2,1.3c0,0.3,0.1,0.5,0.4,0.5c0.3,0,0.7-0.3,1.2-0.9
				c0.7-0.9,1.4-2,2.1-3.4c0.1-0.2,0.1-0.3,0.2-0.3c0.1-0.1,0.2,0,0.2,0.2c0,0.1,0,0.2-0.1,0.3c-1.6,3.2-2.9,4.8-4,4.8
				c-0.5,0-0.9-0.3-1.2-0.7c-0.2-0.3-0.2-0.6-0.2-1c0-0.4,0.1-1,0.3-1.6c-1.4,2.2-2.6,3.3-3.6,3.3c-0.3,0-0.5-0.1-0.8-0.3
				c-0.5-0.4-0.8-1-0.8-1.9c0-1.7,0.7-3.4,2.2-5.1c0.8-1,1.9-1.6,3.1-1.9c0.3-0.1,0.6-0.1,0.9-0.1c0.8,0,1.5,0.3,2,0.8
				c0.2,0.2,0.2,0.4,0.2,0.5c-0.1,0.2-0.2,0.3-0.4,0.2c-0.2-0.6-0.6-0.9-1.2-0.9c-0.7,0-1.7,0.6-2.7,1.8c-0.6,0.7-1.2,1.5-1.7,2.4
				c-0.7,1.1-1,2-1,2.7s0.2,1,0.6,1c1,0,2.4-1.6,4-4.7c0.3-0.6,0.6-1.1,0.8-1.3c0.2-0.2,0.5-0.3,0.8-0.3c0.1,0,0.3,0,0.5,0.1
				c0.3,0.1,0.5,0.1,0.6,0C73.8,21.3,73.3,22,72.8,23.1z"/>
			<path d="M77.5,27.5c0.2,0,0.4,0.1,0.5,0.1c0.7,0,1.4-0.4,2.1-1.2c0.4-0.4,1-1.6,1.9-3.4c0-0.1,0.1-0.1,0.2-0.1
				c0.2,0,0.2,0.1,0.2,0.2c0,0,0,0.1-0.1,0.3c-0.1,0.2-0.1,0.3-0.2,0.5c-0.1,0.2-0.2,0.4-0.3,0.7c-0.2,0.3-0.3,0.6-0.4,0.8
				c-0.1,0.2-0.3,0.4-0.4,0.7c-0.2,0.3-0.3,0.5-0.5,0.6l-0.5,0.6c-0.3,0.3-0.6,0.5-1,0.6c-0.6,0.2-1.3,0.2-1.9,0.1
				c-0.4,0.2-0.8,0.3-1.1,0.3c-1.2,0-2-0.5-2.2-1.5c-0.1-0.2-0.1-0.5-0.1-0.8c0-0.3,0.1-0.6,0.3-0.9c0.2-0.3,0.4-0.4,0.7-0.5
				c0.9-1.7,1.6-3.2,2.2-4.5c0.7-1.5,1.5-2.2,2.4-2.2c0.3,0,0.5,0.1,0.7,0.2c0.2,0.1,0.3,0.2,0.3,0.4c-0.1,0.1-0.2,0.2-0.4,0.1
				c-0.2-0.1-0.4-0.1-0.5-0.1c-0.1,0-0.3,0-0.4,0.1c-0.6,0.3-0.9,0.9-0.9,1.8c0,0.5,0.1,0.9,0.2,1.2c0.1,0.3,0.3,0.6,0.5,1
				c0.4,0.9,0.6,1.6,0.6,2.2s-0.2,1.1-0.5,1.7C78.4,26.8,78,27.2,77.5,27.5z M74.7,26.7c0,0.1,0,0.2,0,0.3c0.1,0.5,0.4,0.7,1,0.7
				c0.2,0,0.4,0,0.5-0.1c-0.6-0.4-1-1-1-1.9C74.8,26,74.7,26.3,74.7,26.7z M76.6,27.4c0.8-0.6,1.1-1.5,1.1-2.8
				c0-0.5-0.1-1.3-0.2-2.2c-0.1-0.9-0.2-1.5-0.2-1.9c0-0.3,0-0.6,0-0.7c-1.3,2.6-2.1,4.2-2.4,4.8c0.4,0,0.5,0.3,0.5,0.8
				C75.5,26.3,75.9,27,76.6,27.4z"/>
			<path d="M83,24.1c-0.3,0.6-0.4,1.2-0.4,2c0,0.5,0.1,0.9,0.3,1.2c0.2,0.3,0.5,0.4,0.9,0.4c1.6,0,3-1.5,4.3-4.4
				c0.1-0.3,0.3-0.4,0.4-0.4c0.1,0,0.1,0.1,0.1,0.1c0,0.1-0.2,0.5-0.6,1.3c-0.4,0.8-0.8,1.5-1.2,2c-0.9,1.2-2,1.8-3.3,1.8
				c-0.7,0-1.3-0.2-1.8-0.7c-0.5-0.4-0.7-1.1-0.7-1.8c0-0.8,0.2-1.6,0.6-2.5c0.4-0.9,0.9-1.7,1.5-2.4c0.6-0.8,1.4-1.3,2.2-1.6
				c0.4-0.2,0.8-0.3,1.1-0.3c0.4,0,0.7,0.1,1,0.3c0.3,0.3,0.4,0.5,0.4,0.8c0,1-0.6,2-1.9,3c-0.4,0.3-0.9,0.6-1.6,0.8
				C83.9,23.9,83.4,24.1,83,24.1z M87.4,19.9c0-0.3-0.1-0.5-0.4-0.5c-0.5,0-1.2,0.6-2.2,1.8c-0.6,0.7-1.1,1.5-1.5,2.4
				c0.3,0,0.7-0.1,1.3-0.3c0.6-0.2,1-0.5,1.5-0.8C86.9,21.7,87.4,20.8,87.4,19.9z"/>
			<path d="M20.1,49.7c0.4,0,0.6,0.3,0.6,0.8c0,0.5-0.2,1-0.6,1.5c-0.8,0.8-1.5,1.9-2.1,3.2c-1,1.9-1.5,3.7-1.5,5.2
				c0,0.6,0.1,1,0.3,1.3c0.2,0.3,0.4,0.4,0.7,0.4c0.8,0,1.8-0.7,2.9-2c1-1.3,1.7-2.5,2.2-3.7c0.1-0.3,0.3-0.4,0.4-0.4
				c0.1,0,0.1,0.2,0,0.5c-0.7,1.6-1.5,3-2.4,4.1c-0.5,0.6-1,1.2-1.7,1.6c-0.7,0.4-1.4,0.6-2.1,0.6s-1.2-0.3-1.5-0.8
				c-0.3-0.5-0.5-1.2-0.5-1.9c0-0.7,0.1-1.5,0.3-2.2c0.2-0.7,0.4-1.3,0.7-1.7c-1.7,2.1-3.6,3.8-5.6,5c-1,0.6-2.2,1-3.4,1.1
				c-0.1,0-0.3,0-0.6,0c-0.3,0-0.6-0.1-1-0.3c-1.2-0.5-1.9-1.8-1.9-3.8c0-2,0.6-4.2,2-6.5c0.7-1.2,1.5-2.3,2.3-3.3
				c-1.2-0.6-2-1.2-2.6-1.8c-0.4-0.5-0.6-1-0.6-1.7c0-0.6,0.1-1.1,0.4-1.2c0.2-0.2,0.3-0.3,0.5-0.1c0.1,0.2,0.1,0.3,0,0.6
				c-0.1,0.2-0.1,0.4-0.1,0.6c0,0.5,0.3,1,0.8,1.5s1.2,1.1,2.2,1.5c4-4.5,8.3-6.7,12.6-6.7c1.3,0,2.4,0.3,3.2,0.9
				c0.8,0.6,1.2,1.4,1.2,2.4c0,1-0.6,2.1-1.8,3.1c-0.6,0.5-1.4,1-2.5,1.3c-1.7,0.6-3.6,0.9-5.9,0.9s-4.2-0.3-5.7-0.7
				c-1.7,2.5-3,4.5-3.6,6.1c-0.6,1.6-1,2.9-1,3.8c0,0.2,0,0.4,0,0.5c0.2,1.4,0.9,2.1,2.2,2.1c1.4,0,3-0.8,4.9-2.3
				c1.3-1.1,2.6-2.4,3.9-3.9s2.2-2.8,2.8-4C19.1,50.3,19.6,49.7,20.1,49.7z M24.1,44.2c0-0.7-0.3-1.3-0.9-1.7
				c-0.6-0.4-1.5-0.6-2.5-0.6c-1.1,0-2.1,0.2-3.2,0.5c-1.1,0.3-2.1,0.8-3,1.5c-0.9,0.7-1.7,1.3-2.4,2.1c-0.7,0.7-1.5,1.5-2.3,2.5
				c1.3,0.4,2.9,0.6,4.7,0.6c3.5,0,6.1-0.6,7.7-1.7C23.5,46.6,24.1,45.5,24.1,44.2z"/>
			<path d="M21.9,59.7c0-0.7,0.3-1.6,1-2.7c-0.3,0-0.4-0.1-0.2-0.4l0.5-0.9c0.6-1.1,1.1-2.1,1.5-2.8c0.2-0.4,0.5-0.5,1-0.5h1.5
				c-0.6,0.4-1.2,1.3-1.9,2.6c-0.6,1.3-1.1,2.3-1.5,3s-0.5,1.3-0.5,1.7c0,0.4,0.1,0.6,0.2,0.8c0.1,0.2,0.3,0.2,0.5,0.2
				c0.3,0,0.8-0.3,1.4-1c0.9-1.1,2.2-3.3,3.9-6.7c0.2-0.4,0.5-0.5,1-0.5h1.4c-0.4,0.3-0.7,0.6-0.9,0.9c-0.2,0.3-0.5,0.9-0.9,1.7
				c-1,2.1-1.6,3.4-1.7,4.1c-0.1,0.3-0.1,0.5-0.1,0.7c0,0.6,0.2,0.8,0.6,0.9c0.9,0,2.1-1.4,3.4-4.3c0.1-0.3,0.2-0.3,0.3-0.3
				c0.1,0.1,0.2,0.1,0.2,0.2s-0.1,0.3-0.2,0.6c-0.2,0.3-0.3,0.6-0.4,0.9c-0.1,0.3-0.4,0.7-0.7,1.2s-0.6,0.9-0.8,1.2
				c-0.7,0.8-1.3,1.1-2,1.1c-0.6,0-1.1-0.3-1.3-0.8c-0.1-0.3-0.2-0.6-0.2-1s0.1-0.9,0.3-1.5c-1.3,2.2-2.4,3.3-3.5,3.3
				c-0.9,0-1.5-0.4-1.6-1.2C21.9,59.9,21.9,59.8,21.9,59.7z"/>
			<path d="M31.4,59.1c0-1.4,0.7-3.8,2.1-7.2h-1.3c-0.1,0-0.1-0.1-0.2-0.1c0-0.1,0-0.2,0-0.3c0.1-0.1,0.1-0.1,0.2-0.1h1.5
				c0.6-1.3,1.2-2.5,1.7-3.4s1-1.5,1.5-1.9c0.4-0.3,0.8-0.5,1-0.5c0.2,0,0.3,0,0.4,0.1c0.4,0.2,0.6,0.6,0.6,1.2
				c0,0.6-0.2,1.3-0.6,2.2c-0.4,0.8-0.8,1.6-1.2,2.4h1.2c0.1,0,0.1,0.1,0.2,0.1c0,0.1,0,0.2,0,0.3c-0.1,0.1-0.1,0.1-0.2,0.1h-1.5
				c-1,1.6-2.1,3-3.4,4.3l-0.6,2.6c-0.1,0.2-0.1,0.4-0.1,0.6c0,0.2,0.1,0.4,0.2,0.6c0.1,0.2,0.3,0.3,0.6,0.3c0.3,0,0.6-0.1,1-0.3
				c0.8-0.6,1.7-1.9,2.8-3.9c0.1-0.2,0.1-0.3,0.3-0.3c0.1,0,0.1,0,0.2,0.1c0,0.1,0,0.2-0.1,0.4c-0.6,1.2-1,2-1.3,2.5
				c-0.9,1.5-1.9,2.2-3,2.2c-0.5,0-1-0.2-1.3-0.6C31.6,60.2,31.4,59.7,31.4,59.1z M36.3,51.9h-1.2c-0.2,0.5-0.7,1.6-1.4,3.4
				C34.6,54.4,35.5,53.3,36.3,51.9z M36.6,51.4c1.1-2,1.7-3.5,1.7-4.2c0-0.3-0.1-0.5-0.2-0.5c-0.2,0-0.5,0.3-0.9,0.8
				c-0.4,0.6-1,1.9-1.9,3.9L36.6,51.4L36.6,51.4z"/>
			<path d="M41.9,52.2c1.3,0,1.9,0.8,1.9,2.4c0,0.7-0.2,1.5-0.6,2.3C42.8,58,42,59,41.1,59.9c0.2,0.4,0.6,0.6,1.2,0.6
				c0.5,0,0.9-0.2,1.3-0.7c0.5-0.5,0.9-1,1.1-1.4c0.2-0.4,0.4-0.7,0.5-0.9c0.1-0.2,0.2-0.4,0.4-0.8c0.2-0.4,0.3-0.6,0.3-0.6
				c0-0.1,0.1-0.1,0.2-0.1c0.2,0,0.3,0.1,0.3,0.2c0,0.1,0,0.1-0.1,0.2l-0.2,0.4c-0.1,0.3-0.2,0.4-0.2,0.5c-0.1,0.1-0.1,0.3-0.3,0.6
				c-0.1,0.3-0.3,0.5-0.3,0.6c-0.1,0.2-0.2,0.4-0.4,0.6c-0.2,0.3-0.3,0.5-0.4,0.6s-0.3,0.3-0.5,0.5c-0.2,0.2-0.4,0.3-0.5,0.4
				C43,60.9,42.6,61,42.2,61c-0.7,0-1.3-0.2-1.7-0.7c-0.8,0.6-1.5,0.9-2.2,0.9c-1.3,0-1.9-0.8-1.9-2.4c0-0.7,0.2-1.5,0.6-2.3
				c0.5-1.2,1.2-2.2,2.2-3.1C40.2,52.6,41.1,52.2,41.9,52.2z M42.2,52.9c-0.5,0-1,0.3-1.7,0.9c-0.6,0.6-1.2,1.5-1.7,2.5
				c-0.6,1.2-0.9,2.2-0.9,3.1c0,0.8,0.3,1.2,0.9,1.2c0.4,0,0.9-0.2,1.5-0.7c-0.3-0.4-0.4-0.8-0.4-1.3c0-0.7,0.3-1.1,0.9-1.1
				c0.2,0,0.4,0.1,0.6,0.2c0.1,0.2,0.2,0.3,0.2,0.4c0,0.1,0,0.3-0.1,0.4c0.3-0.4,0.6-1,1-1.8c0.4-0.9,0.6-1.7,0.6-2.6
				C43.2,53.4,42.8,52.9,42.2,52.9z"/>
			<path d="M76.8,61c-0.8,0.8-1.7,1.3-2.7,1.3s-2-0.5-2.9-1.5c-0.9-1-1.7-2.4-2.3-4.2c-0.6-1.8-1-3.4-1.3-4.9
				c-0.6,1.1-1,1.9-1.3,2.5c-0.3,0.6-0.8,1.3-1.4,2.2c-0.6,0.9-1.2,1.7-1.9,2.4c-2,2.2-4.3,3.3-6.9,3.3c-2.3,0-3.8-0.6-4.4-1.9
				c-0.1-0.3-0.2-0.6-0.2-1s0.2-0.8,0.6-1.3c0.6-0.7,1.5-1.1,2.6-1.1c0.8,0,1.5,0.1,2.4,0.4c0.2,0.1,0.3,0.2,0.3,0.3
				c-0.1,0.1-0.3,0.1-0.7-0.1s-0.9-0.2-1.4-0.2c-0.6,0-1,0.2-1.5,0.6c-0.4,0.4-0.6,0.9-0.6,1.3c0,0.2,0.1,0.4,0.1,0.7
				c0.3,0.9,1.2,1.3,2.4,1.3c1.4,0,2.7-0.4,3.7-1.3c0.6-0.5,1.2-1,1.7-1.5c0.5-0.5,1-1.2,1.6-2c0.9-1.3,1.7-2.5,2.3-3.6
				c0.6-1.1,1.3-2.3,2.1-3.7c0.7-1.3,1.3-2.3,1.6-2.9c1.1-1.9,2.1-3.3,3-4.3c-1-0.1-1.9-0.1-2.9-0.1c-2.2,0-4.4,0.2-6.6,0.7
				c-2.2,0.4-3.9,1.2-5.2,2.2c-1.6,1.3-2.4,2.8-2.4,4.2c0,0.7,0.3,1.4,0.8,1.9c0.5,0.6,1.2,0.8,2.1,0.8c1.1,0,2-0.4,2.7-1.1
				c0.7-0.8,1.1-1.3,1.1-1.8c0-0.2,0.1-0.3,0.2-0.3c0.1,0,0.2,0.1,0.2,0.4c-0.1,0.8-0.4,1.5-1,2.1c-1,1-2.1,1.5-3.5,1.5
				c-1,0-1.9-0.3-2.6-1c-0.8-0.7-1.1-1.6-1.1-2.8c0-1.7,0.8-3.2,2.5-4.6c1.7-1.3,3.9-2.2,6.5-2.6c1.9-0.3,3.7-0.4,5.3-0.4
				s3.1,0.1,4.5,0.3c0.4-0.5,0.8-0.7,0.9-0.7c0.1,0,0.2,0.1,0.2,0.3c0,0.2-0.1,0.4-0.1,0.6c1.3,0.2,2.1,0.4,2.6,0.5
				c2.6,0.8,3.9,1.9,3.9,3.5c0,1-0.6,2-1.9,3c-1.6,1.2-3.7,2.1-6.4,2.5c-0.8,0.1-1.5,0.2-2.4,0.2c0.6,3.1,1.5,5.6,2.9,7.7
				c0.5,0.7,0.9,1.2,1.3,1.5c0.4,0.3,0.8,0.5,1.3,0.5c0.6,0,1.3-0.3,2-1c0.7-0.7,1.5-1.9,2.4-3.8c0.1-0.3,0.3-0.4,0.4-0.4
				c0.1,0,0.1,0.1,0,0.4C78.4,58.6,77.6,60.1,76.8,61z M77.9,45.3c0-0.1,0-0.3-0.1-0.4c-0.2-1-1-1.7-2.3-2.1
				c-0.4-0.1-1.3-0.3-2.5-0.5c-0.3,0.5-1.1,1.8-2.3,3.7c-1.2,2-2.1,3.5-2.7,4.7c0.4-0.1,0.9-0.1,1.7-0.2c0.7-0.1,1.3-0.1,1.6-0.1
				c2-0.3,3.6-1,5-2.3C77.4,47.2,77.9,46.2,77.9,45.3z"/>
			<path d="M80.2,57.2c-0.3,0.6-0.4,1.2-0.4,2c0,0.5,0.1,0.9,0.3,1.2c0.2,0.3,0.5,0.4,0.9,0.4c1.6,0,3-1.5,4.3-4.4
				c0.1-0.3,0.3-0.4,0.4-0.4c0.1,0,0.1,0.1,0.1,0.1c0,0.1-0.2,0.5-0.6,1.3c-0.4,0.8-0.8,1.5-1.2,2c-0.9,1.2-2,1.8-3.3,1.8
				c-0.7,0-1.3-0.2-1.8-0.7c-0.5-0.4-0.7-1.1-0.7-1.8c0-0.8,0.2-1.6,0.6-2.5c0.4-0.9,0.9-1.7,1.5-2.4c0.6-0.8,1.4-1.3,2.2-1.6
				c0.4-0.2,0.8-0.3,1.1-0.3c0.4,0,0.7,0.1,1,0.3c0.3,0.3,0.4,0.5,0.4,0.8c0,1-0.6,2-1.9,3c-0.4,0.3-0.9,0.6-1.6,0.8
				C81.1,57.1,80.5,57.2,80.2,57.2z M84.5,53.1c0-0.3-0.1-0.5-0.4-0.5c-0.5,0-1.2,0.6-2.2,1.8c-0.6,0.7-1.1,1.5-1.5,2.4
				c0.3,0,0.7-0.1,1.3-0.3c0.6-0.2,1-0.5,1.5-0.8C84,54.8,84.5,54,84.5,53.1z"/>
			<path d="M93.1,54.2c0,0.8-0.2,1.6-0.6,2.5c-0.4,0.9-1,1.8-1.6,2.6c-0.7,0.8-1.5,1.4-2.6,1.7c-0.4,0.1-0.8,0.2-1.3,0.2
				c-0.5,0-1-0.2-1.6-0.5L83,66.9c-0.3,0.6-0.5,0.9-0.7,1.1c-0.2,0.2-0.4,0.3-0.6,0.3c-0.2,0-0.3,0-0.4,0c-0.1,0-0.2,0-0.5-0.1
				c-0.3-0.1-0.5-0.1-0.6-0.1c0.4-0.4,1.3-2.1,2.9-5.2c1.5-3.1,2.4-5.1,2.6-6.2c-0.2,0.3-0.4,0.4-0.5,0.4c-0.1,0-0.1-0.1,0-0.3
				c0.1-0.2,0.3-0.6,0.5-1.2c0.3-0.7,0.5-1.4,0.5-2.1c0-0.6-0.1-1-0.4-1.1c1-0.2,1.6-0.3,1.8-0.3s0.3,0.1,0.3,0.2
				C88,52.6,88,52.8,88,53c0,1-0.3,2.2-0.7,3.5l0.5-0.8c0.6-1,1.1-1.7,1.3-1.9c0.3-0.3,0.6-0.6,0.9-0.9c0.5-0.5,1-0.7,1.5-0.7
				c0.1,0,0.3,0,0.4,0.1C92.7,52.4,93.1,53.1,93.1,54.2z M91.9,53.9c0-0.3-0.1-0.5-0.2-0.8c-0.1-0.2-0.3-0.3-0.5-0.3
				c-0.6,0-1.3,0.6-2.1,1.7s-1.9,3.1-3.5,5.9c0.2,0.2,0.5,0.3,0.9,0.3s1-0.3,1.7-0.9c1.2-1,2.1-2.2,2.9-3.6
				C91.7,55.2,91.9,54.5,91.9,53.9z"/>
			<path d="M100.6,56.3c-0.6,1.1-0.9,1.9-1,2.4c-0.1,0.5-0.2,1-0.2,1.3c0,0.3,0.1,0.5,0.4,0.5c0.3,0,0.7-0.3,1.2-0.9
				c0.7-0.9,1.4-2,2.1-3.4c0.1-0.2,0.1-0.3,0.2-0.3c0.1-0.1,0.2,0,0.2,0.2c0,0.1,0,0.2-0.1,0.3c-1.6,3.2-2.9,4.8-4,4.8
				c-0.5,0-0.9-0.3-1.2-0.7c-0.2-0.3-0.2-0.6-0.2-1c0-0.4,0.1-1,0.3-1.6c-1.4,2.2-2.6,3.3-3.6,3.3c-0.3,0-0.5-0.1-0.8-0.3
				c-0.5-0.4-0.8-1-0.8-1.9c0-1.7,0.7-3.4,2.2-5.1c0.8-1,1.9-1.6,3.1-1.9c0.3-0.1,0.6-0.1,0.9-0.1c0.8,0,1.5,0.3,2,0.8
				c0.2,0.2,0.2,0.4,0.2,0.5s-0.2,0.3-0.4,0.2c-0.2-0.6-0.6-0.9-1.2-0.9c-0.7,0-1.7,0.6-2.7,1.8c-0.6,0.7-1.2,1.5-1.7,2.4
				c-0.7,1.1-1,2-1,2.7s0.2,1,0.6,1c1,0,2.4-1.6,4-4.7c0.3-0.6,0.6-1.1,0.8-1.3c0.2-0.2,0.5-0.3,0.8-0.3c0.1,0,0.3,0,0.5,0.1
				c0.3,0.1,0.5,0.1,0.6,0C101.6,54.5,101.2,55.2,100.6,56.3z"/>
			<path d="M104.1,60.6c0.3,0,0.7-0.2,1-0.5c0.6-0.6,1.5-1.9,2.4-3.9c0.1-0.3,0.3-0.3,0.4-0.2c0,0,0.1,0.1,0.1,0.2
				c0,0.1-0.1,0.3-0.2,0.6c-0.1,0.3-0.3,0.6-0.4,0.8s-0.3,0.6-0.6,1.2c-0.3,0.5-0.6,1-0.9,1.3c-0.7,0.8-1.4,1.2-2,1.2
				s-1.1-0.2-1.3-0.6s-0.4-0.8-0.4-1.3c0-0.5,0.1-1,0.3-1.5l1.7-4.2c0-0.1,0.1-0.3,0.1-0.4s-0.1-0.4-0.3-0.7l1.4,0
				c0.4,0,0.6,0.1,0.7,0.2c0.1,0.1,0,0.4-0.2,0.7l-2.1,4.8c-0.3,0.6-0.4,1.2-0.4,1.6C103.4,60.4,103.6,60.6,104.1,60.6z M106.7,51.1
				c-0.3,0.2-0.5,0.3-0.8,0.3c-0.3,0-0.5-0.1-0.7-0.3c-0.2-0.2-0.3-0.4-0.2-0.8c0.1-0.3,0.2-0.5,0.4-0.8c0.3-0.2,0.5-0.3,0.8-0.3
				c0.3,0,0.5,0.1,0.7,0.3c0.2,0.2,0.3,0.4,0.2,0.8C107.1,50.7,106.9,50.9,106.7,51.1z"/>
			<path d="M111.1,50.8c0,0.8-0.5,1.5-1.5,2.2c0.3,0,0.8,0,1.4,0c0.6,0,1.3-0.1,2.2-0.1c0,0.1,0.1,0.2,0.1,0.4c0,0.2-0.1,0.6-0.3,1
				c-0.2,0.4-0.4,0.8-0.6,1.1c-0.2,0.3-0.3,0.6-0.5,0.9c-0.1,0.3-0.3,0.6-0.5,1c-0.2,0.4-0.3,0.8-0.4,1.1c-0.4,1.3-0.4,2,0.2,2
				c0.7,0,1.8-1.4,3.2-4.3c0.1-0.2,0.2-0.3,0.3-0.3c0.1,0.1,0.1,0.1,0.1,0.2c0,0.1-0.1,0.3-0.3,0.8c-0.2,0.4-0.5,0.9-0.7,1.4
				c-0.3,0.5-0.7,1-1.2,1.7c-0.6,0.8-1.3,1.2-1.9,1.2c-0.7,0-1.1-0.4-1.4-1.2c-0.1-0.2-0.1-0.4-0.1-0.7s0.1-0.7,0.3-1.2
				c0.2-0.5,0.5-1.2,1-1.9c0.4-0.7,0.7-1.2,0.7-1.3c0.1-0.1,0.1-0.3,0.1-0.4c0-0.5-0.7-0.8-2.1-0.8l-0.3,0.8
				c-1.1,2.8-2.1,4.7-3.1,5.7c-0.2,0.2-0.3,0.1-0.3-0.2c0-0.1,0-0.1,0.1-0.2c1-1.3,1.8-2.8,2.5-4.5s1.2-3.4,1.5-5
				c0.1-0.5,0.3-0.8,0.7-0.8c0.4,0,0.6,0.3,0.8,0.7C111.1,50.4,111.1,50.6,111.1,50.8z"/>
		</g>
	</g>
</g>
</svg>
