<svg id="Layer_1" data-name="Layer 1" xmlns="http://www.w3.org/2000/svg" viewBox="0 0 120 80"><title>アートボード 1</title><path d="M40.58,16.95l-3,2.16a3.42,3.42,0,0,1-.91.43.59.59,0,0,1-.61-.43,3.67,3.67,0,0,1-.2-1.15,9.82,9.82,0,0,1,.3-2.16,5.62,5.62,0,0,1,.61-1.73,6.51,6.51,0,0,1,1.72-1.59,15.31,15.31,0,0,1,3.35-2,21.31,21.31,0,0,1,4.06-1.73A13.87,13.87,0,0,1,49.7,8a2.36,2.36,0,0,1,1.83.58c.41.43.61,1.3.61,2.89a7.94,7.94,0,0,1-.61,2.89,21.16,21.16,0,0,1-1.52,3c-.61,1-1.62,2.74-3.25,5.19a14,14,0,0,1,1.83-.29c.41,0,1.12-.14,2.13-.29,1.22-2.6,2.23-4.47,2.94-6.06s1.42-2.74,1.93-3.75.81-1.59.91-1.73.3-.43.51-.29a1.23,1.23,0,0,1,.2.87,4.48,4.48,0,0,1-.1,1.3,4.21,4.21,0,0,1-.41,1,2.66,2.66,0,0,0-.3.58c-.2.58-.61,1.3-1,2.16s-.91,1.88-1.32,2.74-.91,2-1.52,3.17a11.33,11.33,0,0,1,3,.58l-2.54,4.76a15,15,0,0,0-2.74-.14,12.29,12.29,0,0,0-.61,1.88,6.39,6.39,0,0,0-.41,1.3,4.6,4.6,0,0,0-.2,1.15,3.54,3.54,0,0,0,.1.87,2,2,0,0,1,.1.58,1.15,1.15,0,0,1-.41.87,4,4,0,0,1-.91.72,1.18,1.18,0,0,1-.81.29c-.3,0-.51-.43-.51-1.15a17.7,17.7,0,0,1,1.62-6.35,44.07,44.07,0,0,0-5.07.87c-.51,1-1,2-1.52,2.89s-.81,1.73-1.12,2.31a10.84,10.84,0,0,0-.61,1.3.71.71,0,0,1-.41.29.82.82,0,0,1-.71-.43c-.1-.14-.1-.29-.2-.43v-.87a3.12,3.12,0,0,1,.2-.72c.1-.29.41-.87.81-1.88s.81-1.59,1-2h-.91a1.7,1.7,0,0,1-1.22-.43,1.15,1.15,0,0,1-.41-.87,5.76,5.76,0,0,1,.2-1.3A8.4,8.4,0,0,1,39,24.88a1,1,0,0,1,.71-.43,1.18,1.18,0,0,1,.61.29l3.55-1.3c2-3,3.45-5.48,4.46-7.36a8.65,8.65,0,0,0,1.42-3.46,1.38,1.38,0,0,0-.2-.72,2.25,2.25,0,0,0-.51-.43,1.11,1.11,0,0,0-.71-.14,8.43,8.43,0,0,0-1.42.29c-.71.29-1.42.58-2.33,1s-2,1.15-3.45,1.88c-1,.58-1.52,1-1.52,1.15s.1.29.2.29.3.14.51.14a.38.38,0,0,1,.3.14l-.2.29C40.88,16.66,40.68,16.8,40.58,16.95Z"/><path d="M57.52,24.45a16.91,16.91,0,0,1,4.06-4,6.39,6.39,0,0,1,3-1.3.68.68,0,0,1,.51.29,2,2,0,0,1,.41.87,2.16,2.16,0,0,1,.1.72.88.88,0,0,1-.2.58,2.15,2.15,0,0,1-.71.43,3.79,3.79,0,0,1,.2.87,2.69,2.69,0,0,1,.2.87,1.16,1.16,0,0,1,.1.58A4.32,4.32,0,0,1,64.51,26a16.64,16.64,0,0,0-.91,1.88,3.21,3.21,0,0,0-.3,1.44c0,1,.3,1.44.91,1.44s1.62-.87,3-2.6v1.15c-2.33,3.75-4.06,5.48-5,5.48a.87.87,0,0,1-.81-.43,2.93,2.93,0,0,1-.2-1.44,19.58,19.58,0,0,1,.81-4.47c-1.32,2.16-2.33,3.61-3,4.62s-1.22,1.3-1.62,1.3c-.2,0-.51-.29-.81-.72a6.7,6.7,0,0,1-.81-1.88,24.68,24.68,0,0,0,0-2.74,7.62,7.62,0,0,1,.1-1.59,3.46,3.46,0,0,1,.51-1.3A13.93,13.93,0,0,1,57.52,24.45Zm6.69-2.16a26.38,26.38,0,0,0-5.17,4,5,5,0,0,0-1.52,3.32,1.59,1.59,0,0,0,.2,1c.1.29.2.43.41.43a1.46,1.46,0,0,0,.51-.29,13.19,13.19,0,0,0,2.64-3.17A55.21,55.21,0,0,0,64.21,22.29Z"/><path d="M67.35,28.63V28.2c2.43-3.61,4.06-6.06,5-7.5.2-1.59.71-2.45,1.42-2.45a1.18,1.18,0,0,1,.61.29l.1.43c0,.14-.1.43-.1.72s.1.72.2,1.44.2,1.3.3,1.73c.2.14.2.72.2,1.3a6.42,6.42,0,0,1-.41,2.45,9.25,9.25,0,0,1-1.22,2.31,23.5,23.5,0,0,1-2,2.31,1.82,1.82,0,0,0,.81.14,2.09,2.09,0,0,0,1.22-.43,4.72,4.72,0,0,0,1.32-1.15c.41-.58,1-1,1.62-1.73v1.3a34.28,34.28,0,0,1-3.14,3.75,3.83,3.83,0,0,1-2.43,1.3c-.91,0-1.62-.58-2.43-1.59a5,5,0,0,1-.81-1.88A12.67,12.67,0,0,1,67.35,28.63Zm5.17-3-.2-2.89c-.61.87-1.83,2.74-3.65,5.34a2.09,2.09,0,0,1,1.12.72,7.6,7.6,0,0,1,.81,1.73A4.35,4.35,0,0,0,72,29.07a5.67,5.67,0,0,0,.51-2.6V25.6Z"/><path d="M78.51,28.78v.43a3.47,3.47,0,0,0,.41,1.88c.3.43.61.72,1,.72a3,3,0,0,0,1.42-.43,6.38,6.38,0,0,0,1.42-1.15,11.43,11.43,0,0,0,1.72-2v1.15a26.1,26.1,0,0,1-2.94,4.18A3.7,3.7,0,0,1,78.82,35a2.08,2.08,0,0,1-1.93-1.3,9.08,9.08,0,0,1-.71-3.75,8.9,8.9,0,0,1,.71-3.75,16.86,16.86,0,0,1,2.23-3.61,8.28,8.28,0,0,1,2.13-1.88A3.91,3.91,0,0,1,83.08,20a1.24,1.24,0,0,1,1,.43,2.23,2.23,0,0,1,.41,1.3,5.48,5.48,0,0,1-.61,2.45,8.67,8.67,0,0,1-2,2.45C80.95,27.19,79.83,28.06,78.51,28.78Zm.1-1.3a7.2,7.2,0,0,0,2.13-1.73,7.64,7.64,0,0,0,1.32-2,3,3,0,0,0,.41-1.44q0-.43-.3-.43c-.2,0-.41.14-.81.43a8.57,8.57,0,0,0-1.12,1.15,5.76,5.76,0,0,0-1,1.73A11.91,11.91,0,0,0,78.61,27.48Z"/><path d="M14.2,56.48c-1.12,0-1.93.14-2.43.14a31.15,31.15,0,0,1-3.35-.14A15,15,0,0,1,7.3,58.07L6.09,59.8a9.12,9.12,0,0,1-1,1.3,3.87,3.87,0,0,1-.71.87c-1,1.44-1.72,2.31-2,2.74a4.62,4.62,0,0,1-1,1.15c-.41.29-.61.58-.91.58s-.51-.14-.51-.58A5.48,5.48,0,0,1,.61,63.7a20.65,20.65,0,0,1,1.52-2.6c.51-.72,1-1.15,1.42-1.15a.59.59,0,0,1,.41.14l2.64-4c-.3,0-.81-.14-1.32-.14a10.38,10.38,0,0,1-1.12-.14c-.2-.14-.3-.29-.3-.72a4.94,4.94,0,0,1,1.32-2.6,3.3,3.3,0,0,1,1.32-1.3,7.66,7.66,0,0,1,2.33-.29,6,6,0,0,0-1.42.43c-.3.14-.41.43-.51.87H9.33c1.52-2.16,2.94-3.9,4.16-5.48a48.06,48.06,0,0,1,4-4.47,40.36,40.36,0,0,1,4.36-3.9A3.77,3.77,0,0,1,22.32,40a5.19,5.19,0,0,1-.3,1.73c-.2.58-.71,1.88-1.52,3.75S19,49.27,18.16,51.43h2.13c.1,0,.2.14.2.43a2.5,2.5,0,0,1-.2.58c-.1.29-.41.72-.71,1.3s-.71,1.3-1,1.88l-2,.29a26.22,26.22,0,0,0-1.62,4.91q0,.87.61.87A10.51,10.51,0,0,0,18,59.95l-.1,1c-.71.87-1.32,1.44-1.72,1.88S15.32,63.7,15,64a9.59,9.59,0,0,1-.81.72,1.84,1.84,0,0,1-.81.29,1.11,1.11,0,0,1-.91-.58,3,3,0,0,1-.41-1.73,10,10,0,0,1,.2-1.3c.2-.58.3-1.15.51-1.59S13.49,58.36,14.2,56.48ZM11.57,52,16,51.87a26.1,26.1,0,0,1,1.32-3c.3-.72.71-1.59,1.12-2.6s.71-1.73,1-2.31.61-1.44.91-2.16a26.72,26.72,0,0,0-2,2A34.51,34.51,0,0,0,16,46.38c-.91,1-1.62,2-2.33,2.89S12.38,50.86,11.57,52Z"/><path d="M27,57.06a46.93,46.93,0,0,1-3,5.34c-.71,1-1.32,1.59-1.72,1.59a1.26,1.26,0,0,1-1-.58,5.73,5.73,0,0,1-.71-1.73,8.36,8.36,0,0,1-.2-2.31,6.26,6.26,0,0,1,.1-1.44,12.71,12.71,0,0,1,.41-1.44,5.89,5.89,0,0,1,.81-1.59c.41-.58.71-1.3,1.22-2,.3-.43.51-.87.71-1.15s.41-.58.51-.58A5.65,5.65,0,0,1,25,51a1.44,1.44,0,0,1,.81.14,1.07,1.07,0,0,1,.41.29,2.94,2.94,0,0,1-.41,1.3A19.23,19.23,0,0,1,24.45,55a24,24,0,0,1-2.13,2.6,6.78,6.78,0,0,0-.3,1.73c0,.58.2.87.51.87.1,0,.3-.14.51-.43a10,10,0,0,0,1.32-1.59c.61-.72,1.22-1.44,1.62-2a8.23,8.23,0,0,0,1.22-2c.51-.87.81-1.59,1.12-2a23,23,0,0,1,1.42-2c.3-.29.51-.43.71-.43s.41.14.41.29a3,3,0,0,1,.1,1.15,1.78,1.78,0,0,1-.1.72,3.12,3.12,0,0,1-.2.72A9.92,9.92,0,0,1,29.92,54c-.3.72-.81,1.59-1.22,2.6A12.45,12.45,0,0,0,28,58.36a5.1,5.1,0,0,0-.3,1.44c0,.72.2,1,.61,1a1.58,1.58,0,0,0,1.12-.58c.41-.43,1-1,1.93-2v1.3q-1.67,2.16-2.43,3c-.51.58-1,1.15-1.32,1.44a1.82,1.82,0,0,1-1.12.43c-.81,0-1.12-.72-1.12-2a10,10,0,0,1,.3-2A14.67,14.67,0,0,0,27,57.06Z"/><path d="M36.32,48.11h.61a9,9,0,0,1,1.32-2.6,1.45,1.45,0,0,1,1.32-.72c.51,0,.81.14.81.43a4.89,4.89,0,0,1-.61,1.3q-.61,1.08-.91,1.73c.3,0,.61.14.81.14a1,1,0,0,1,.61.14,27.69,27.69,0,0,1-2,4.33H36.52q-.76,1.73-1.22,3c-.3.87-.61,1.73-.81,2.45a8,8,0,0,0-.3,2.16c0,.87.3,1.3.81,1.3A2.65,2.65,0,0,0,36.42,61a22,22,0,0,0,2.23-2.45v1.3c-2.54,3.9-4.36,5.77-5.58,5.77-.41,0-.71-.29-1-.72a3,3,0,0,1-.41-1.73,14.85,14.85,0,0,1,.2-1.73,22.18,22.18,0,0,1,.81-3,1.59,1.59,0,0,1-.41.43l-.3.43-.3.43-.3.43v-1.3a30.39,30.39,0,0,0,3.55-6.06h-.81a3,3,0,0,0-1.22.14c-.1,0-.2.14-.3.14h-.2s-.1,0-.1-.14a5.48,5.48,0,0,1,.61-2,5.1,5.1,0,0,1,.91-1.59,3,3,0,0,1,1-.72C35,48.11,35.61,48.11,36.32,48.11Z"/><path d="M47.37,58.36v1.3c-.61.72-1.12,1.3-1.42,1.59a2,2,0,0,1-1.62.29c-1.22,2-2.23,3-3.14,3a2,2,0,0,1-1.42-.72,4.56,4.56,0,0,1-1-2,8.32,8.32,0,0,1-.41-2.89A7.25,7.25,0,0,1,39,56.19a14.42,14.42,0,0,1,1.52-2.89,10.85,10.85,0,0,1,2-2.16,3.36,3.36,0,0,1,2-.87,1.92,1.92,0,0,1,1,.29,1,1,0,0,1,.41.87,1.5,1.5,0,0,1-.3.87c.3.14.61.29.71.58a3.91,3.91,0,0,1,.2,1.3,13.52,13.52,0,0,1-.3,2.45,19.73,19.73,0,0,1-.81,2.74l.2.29h.2a.69.69,0,0,0,.51-.14c.2-.14.3-.29.41-.29S47,58.79,47.37,58.36Zm-2.84-5.19c-.81.72-1.42,1.3-1.93,1.73a20,20,0,0,0-1.42,1.59,9.16,9.16,0,0,0-.81,1.59c-.2,1.44-.3,2.31-.3,2.45,0,.87.41,1.3,1.32,1.3.41,0,1-.43,2-1.44a5.07,5.07,0,0,1-.2-1.73,7.72,7.72,0,0,1,.41-2.6A12.39,12.39,0,0,1,44.53,53.16Z"/><path d="M57.92,62.69l-5.17-3.61a29,29,0,0,0-2.23,5.19,2.83,2.83,0,0,1-.71,1.44c-.41.43-.61.58-.81.58a.64.64,0,0,1-.71-.72,12.16,12.16,0,0,1,.81-2.45,54.2,54.2,0,0,1,2.33-4.91,8.14,8.14,0,0,0-1-.58.88.88,0,0,1-.2-.58,5.12,5.12,0,0,1,.51-1.44,12.28,12.28,0,0,1,.61-1.15,2.25,2.25,0,0,1,.51-.43c.2-.14.41-.14.51-.29s.71-.14,1.62-.29c.71-1.44,1.52-2.89,2.33-4.62s1.52-2.89,2-3.75c-1.42.29-2.43.58-3,.72a14.91,14.91,0,0,0-1.52.43,4.89,4.89,0,0,0-.91.29c-.2.14-.2.14-.2.43a.28.28,0,0,0,.3.29c.2,0,.51.14.81.14h.71a.28.28,0,0,1,.3.29c0,.14-.1.14-.3.29a13.45,13.45,0,0,0-1.93.14,4.77,4.77,0,0,0-1.52.14,1.43,1.43,0,0,1-.81,0A.68.68,0,0,1,49.7,48a1.38,1.38,0,0,1-.2-.72,5.61,5.61,0,0,1,.3-1.3c.2-.58.41-1.15.71-1.88a4.35,4.35,0,0,1,1.12-1.44,8.62,8.62,0,0,1,2.23-1.3,20.73,20.73,0,0,1,3.35-1,15.78,15.78,0,0,1,3.65-.43A10.58,10.58,0,0,1,63,40q1.07.22,1.83.43a2.73,2.73,0,0,1,1.32.58,4.69,4.69,0,0,1,1.93,1.73,6.24,6.24,0,0,1,.71,2.6,12.62,12.62,0,0,1-.3,2.74,9.72,9.72,0,0,1-1,2.45,6.34,6.34,0,0,1-1.72,1.88A6.15,6.15,0,0,1,63.3,53.6c-1.12.29-2.43.72-4,1.15a45.61,45.61,0,0,1-5.17.72q2.13,1.08,4,2.16c1.22.72,2.23,1.3,3.14,1.88a17.32,17.32,0,0,1,2,1.44,4.4,4.4,0,0,1,1.32,1.15A3.33,3.33,0,0,1,65,63a7.68,7.68,0,0,1,.1,1.73,10.83,10.83,0,0,1-.1,2c-.1.43-.2.72-.51.72q-.15,0-.61-.43c-.41-.29-.81-.58-1.52-1.15s-1.22-.87-1.72-1.3S59,63.55,57.92,62.69Zm1.22-17.75v.58a7.34,7.34,0,0,1-.2,1.3c-.2.43-.41,1-.61,1.44s-.61,1.3-1.12,2.16-1,1.88-1.42,2.6c1.93-.58,3.55-1,5-1.59s2.54-1,3.35-1.44a7.39,7.39,0,0,0,2-1.59,3.17,3.17,0,0,0,.71-1.73c0-.72-.51-1.15-1.42-1.59A8.3,8.3,0,0,0,62,44.51h-.91a3.25,3.25,0,0,0-1.12.14A6.66,6.66,0,0,1,59.14,44.94Z"/><path d="M68.27,59.08v.43a3.47,3.47,0,0,0,.41,1.88c.3.43.61.72,1,.72a3,3,0,0,0,1.42-.43,6.38,6.38,0,0,0,1.42-1.15,18.26,18.26,0,0,0,1.72-2v1.15a26.1,26.1,0,0,1-2.94,4.18,3.7,3.7,0,0,1-2.74,1.44A2.08,2.08,0,0,1,66.64,64a10.65,10.65,0,0,1-.71-4,8.9,8.9,0,0,1,.71-3.75,16.86,16.86,0,0,1,2.23-3.61A8.28,8.28,0,0,1,71,50.71,3.91,3.91,0,0,1,72.83,50a1.24,1.24,0,0,1,1,.43,2.23,2.23,0,0,1,.41,1.3,5.48,5.48,0,0,1-.61,2.45,8.67,8.67,0,0,1-2,2.45A19.42,19.42,0,0,1,68.27,59.08Zm.1-1.3a7.2,7.2,0,0,0,2.13-1.73,7.64,7.64,0,0,0,1.32-2,3.42,3.42,0,0,0,.41-1.44q0-.43-.3-.43c-.2,0-.41.14-.81.43A8.57,8.57,0,0,0,70,53.74a5.76,5.76,0,0,0-1,1.73A9.72,9.72,0,0,0,68.37,57.78Z"/><path d="M73.75,59.95V58.5q2-3,3.35-5.63c.91-1.73,1.72-3.17,2.23-4.18a9.45,9.45,0,0,1,1.42-2.16,1.94,1.94,0,0,1,1.52-.58c.3,0,.51.14.51.58a2.09,2.09,0,0,1-.41,1.15,7.27,7.27,0,0,1-1,1.59A23.34,23.34,0,0,0,79.83,52c-.51,1.15-1.12,2.6-1.72,4.18a21.22,21.22,0,0,0,1.72-2,12.45,12.45,0,0,1,1.62-1.73,7.52,7.52,0,0,1,1.22-1A2.09,2.09,0,0,1,83.89,51c.3,0,.41,0,.51.14a1.47,1.47,0,0,1,.1.72A8.87,8.87,0,0,1,84,54.75a24.23,24.23,0,0,1-1.42,3,24.1,24.1,0,0,1-2.33,3.61,2.25,2.25,0,0,0,1,.29c1.12,0,2.54-1.15,4.36-3.46v1.44c-.71.87-1.42,1.73-2,2.6a17.64,17.64,0,0,1-1.93,1.88,3,3,0,0,1-1.62.72,1,1,0,0,1-.61-.14c-.2-.14-.41-.14-.61-.29a3.22,3.22,0,0,1-.71-.43.81.81,0,0,0-.61-.29,1.31,1.31,0,0,1-.51.14,1.58,1.58,0,0,1-1.12-.58c-.3.87-.61,1.88-1,3.32s-.71,2.45-.91,3.17a11.44,11.44,0,0,1-1,2.31c-.2.29-.41.43-.51.43-.41,0-.61-.43-.61-1.44a9.18,9.18,0,0,1,.41-2.74,11.73,11.73,0,0,1,.91-2.74c.41-.87.71-1.73,1.22-2.6a16.64,16.64,0,0,0,.91-1.88c1.42-3.61,2.64-6.64,3.45-9.09C76.48,55.76,74.86,58.36,73.75,59.95Zm5.68,1a24.24,24.24,0,0,0,2-3.46,8,8,0,0,0,.71-2.16c0-.43-.2-.72-.51-.72-.51,0-1.12.58-1.93,1.59a28.65,28.65,0,0,0-2.54,4.33,6.32,6.32,0,0,1,1.42-.14C78.92,60.38,79,60.67,79.43,61Z"/><path d="M87,54.75a16.91,16.91,0,0,1,4.06-4,6.39,6.39,0,0,1,3-1.3.68.68,0,0,1,.51.29,2.41,2.41,0,0,1,.41.87,2.67,2.67,0,0,1,.1.72.88.88,0,0,1-.2.58,2.15,2.15,0,0,1-.71.43,3.79,3.79,0,0,1,.2.87,3.94,3.94,0,0,1,.2.87,4.44,4.44,0,0,0,.1.58A4.32,4.32,0,0,1,94,56.34a16.64,16.64,0,0,0-.91,1.88,5.62,5.62,0,0,0-.3,1.44c0,1,.3,1.44.91,1.44s1.62-.87,3-2.6v1.15c-2.33,3.75-4.06,5.48-5,5.48a.87.87,0,0,1-.81-.43,2.93,2.93,0,0,1-.2-1.44,19.58,19.58,0,0,1,.81-4.47c-1.32,2.16-2.33,3.61-3,4.62s-.91,1.15-1.32,1.15c-.2,0-.51-.29-.81-.72A6.7,6.7,0,0,1,85.61,62a9.32,9.32,0,0,1-.3-2.45,7.62,7.62,0,0,1,.1-1.59,3.46,3.46,0,0,1,.51-1.3C86.22,56.19,86.53,55.47,87,54.75Zm6.69-2.16a26.38,26.38,0,0,0-5.17,4A5,5,0,0,0,87,59.95a1.59,1.59,0,0,0,.2,1c.2.29.2.43.41.43a1.46,1.46,0,0,0,.51-.29,13.19,13.19,0,0,0,2.64-3.17A55.21,55.21,0,0,0,93.73,52.59Z"/><path d="M103.57,58.36V59.8A21.17,21.17,0,0,1,101,63.55c-.81.87-1.42,1.3-2,1.3s-1.32-.58-1.72-1.73a10.9,10.9,0,0,1-.51-3.75,6.26,6.26,0,0,1,.1-1.44c.1-.43.2-.87.3-1.15s.3-.72.61-1.44q2-4.33,3.65-4.33c.61,0,.81.29.81.87a8.9,8.9,0,0,1-.51,2,7.9,7.9,0,0,1-1,1.88L99.1,58.07a3.23,3.23,0,0,0-.41,1.44,1.55,1.55,0,0,0,.41,1.15,1.39,1.39,0,0,0,1,.43,2.51,2.51,0,0,0,1.42-.72A7.28,7.28,0,0,0,103.57,58.36Zm-.91-8.8q-.3,0-.61-.43a1.61,1.61,0,0,1-.3-1,3.82,3.82,0,0,1,.61-1.88c.41-.72.81-1,1.22-1a.82.82,0,0,1,.71.43,1.61,1.61,0,0,1,.3,1,3.82,3.82,0,0,1-.61,1.88A1.66,1.66,0,0,1,102.65,49.56Z"/><path d="M103.36,59.8V58.5a14.11,14.11,0,0,0,1.12-2.16,1,1,0,0,1-.61-.58,2.21,2.21,0,0,1-.2-1,4.52,4.52,0,0,1,.41-1.73,11,11,0,0,1,1-2,3.7,3.7,0,0,1,1.12-1.15.48.48,0,0,1,.41-.14q.3,0,.3.43a2.94,2.94,0,0,1-.41,1.3,20.21,20.21,0,0,1,3.65-.58c.2,0,.3,0,.41.14a1.42,1.42,0,0,1,.41.87,5.76,5.76,0,0,1,.2,1.3,1.5,1.5,0,0,1-.3.87,15.51,15.51,0,0,0-.91,1.44,10.21,10.21,0,0,0-1.22,2.45,7.42,7.42,0,0,0-.51,2,.76.76,0,0,0,.81.87c.61,0,1.52-.87,2.94-2.45v1.3l-1.93,2.74A7.85,7.85,0,0,1,108.64,64a1.77,1.77,0,0,1-1.12.58c-.41,0-.71-.29-1-.72a4.27,4.27,0,0,1-.41-2.16,6.8,6.8,0,0,1,.3-1.88,15.12,15.12,0,0,1,.91-2.31c.41-.87.81-1.73,1.32-2.6-.3.14-.51.14-.91.29s-.71.14-1,.29a7.23,7.23,0,0,0-.81.29A17.71,17.71,0,0,1,103.36,59.8Z"/><path d="M114,59.08v.43a3.47,3.47,0,0,0,.41,1.88c.3.43.61.72,1,.72a3,3,0,0,0,1.42-.43,6.38,6.38,0,0,0,1.42-1.15,18.26,18.26,0,0,0,1.72-2v1.15a26.1,26.1,0,0,1-2.94,4.18,3.7,3.7,0,0,1-2.74,1.44,2.08,2.08,0,0,1-1.93-1.3,9.08,9.08,0,0,1-.71-3.75,8.9,8.9,0,0,1,.71-3.75,16.86,16.86,0,0,1,2.23-3.61A8.28,8.28,0,0,1,116.75,51a3.91,3.91,0,0,1,1.83-.72,1.24,1.24,0,0,1,1,.43A2.23,2.23,0,0,1,120,52a5.48,5.48,0,0,1-.61,2.45,8.67,8.67,0,0,1-2,2.45C116.45,57.49,115.33,58.36,114,59.08Zm.1-1.3a7.2,7.2,0,0,0,2.13-1.73,7.64,7.64,0,0,0,1.32-2,3.42,3.42,0,0,0,.41-1.44q0-.43-.3-.43c-.2,0-.41.14-.81.43a8.57,8.57,0,0,0-1.12,1.15,5.76,5.76,0,0,0-1,1.73A9.72,9.72,0,0,0,114.12,57.78Z"/></svg>